#!OML:ASF E:\motion texture\Top Level 1\Subject 1\Session 1\male.ASF
:FULLY-SPECIFIED
:DEGREES
238
root 29.2672 17.6274 6.42443 2.63968 -84.3795 7.45311
lowerback -0.738519 -1.52575 -2.34342
upperback -0.591073 -2.0663 4.02676
thorax 0.0381723 -1.04565 5.45768
lowerneck -9.16799 -6.07103 -7.58489
upperneck 6.00212 -7.70085 6.27325
head 3.81766 -3.69687 2.64782
rclavicle 1.39149e-014 8.74653e-015
rhumerus -36.6592 -7.97089 -72.7901
rradius 28.179
rwrist 13.7105
rhand -12.8975 -23.4321
rfingers 7.12502
rthumb 13.192 -52.9948
lclavicle 1.39149e-014 8.74653e-015
lhumerus -32.5741 9.46341 84.5874
lradius 37.0224
lwrist -23.8769
lhand -13.4065 17.9252
lfingers 7.12502
lthumb 12.7013 47.5189
rfemur -34.6928 -0.734679 16.4653
rtibia 16.4243
rfoot 0.159127 -17.5327
rtoes 6.57391
lfemur 0.894258 -3.21531 -23.1031
ltibia 15.9786
lfoot -11.6066 -6.35023
ltoes -5.86621
239
root 29.1358 17.632 6.41689 3.41832 -84.386 6.71165
lowerback -0.734885 -1.54368 -2.20455
upperback -0.622048 -2.09215 4.07271
thorax 0.00398336 -1.05839 5.42691
lowerneck -9.23249 -6.08786 -7.61334
upperneck 5.90642 -7.70673 6.2282
head 3.79864 -3.7014 2.63748
rclavicle 6.16232e-015 1.59028e-014
rhumerus -36.8347 -8.53004 -72.2733
rradius 27.6836
rwrist 13.9005
rhand -12.7667 -23.3289
rfingers 7.12502
rthumb 13.318 -52.8833
lclavicle 6.16232e-015 1.59028e-014
lhumerus -32.7879 9.75897 84.56
lradius 36.5045
lwrist -24.2863
lhand -13.2376 17.928
lfingers 7.12502
lthumb 12.8642 47.5116
rfemur -34.53 -0.422973 16.5907
rtibia 16.3143
rfoot 0.432873 -17.4171
rtoes 7.21023
lfemur 0.921138 -3.28916 -22.9243
ltibia 16.5295
lfoot -11.2718 -6.49499
ltoes -6.65671
240
root 29.0036 17.6375 6.40915 4.30585 -84.4005 5.85549
lowerback -0.730154 -1.55926 -2.05524
upperback -0.652973 -2.11499 4.12166
thorax -0.0314306 -1.06975 5.39345
lowerneck -9.3 -6.10622 -7.64537
upperneck 5.81449 -7.714 6.18049
head 3.78137 -3.70674 2.62666
rclavicle -1.13307e-014 2.14687e-014
rhumerus -37.0027 -9.10965 -71.7315
rradius 27.2313
rwrist 14.0823
rhand -12.6351 -23.2335
rfingers 7.12502
rthumb 13.445 -52.7796
lclavicle -1.13307e-014 2.14687e-014
lhumerus -33.0055 10.0663 84.5246
lradius 35.9727
lwrist -24.7151
lhand -13.0465 17.9269
lfingers 7.12502
lthumb 13.0484 47.4987
rfemur -34.3515 -0.122048 16.742
rtibia 16.2548
rfoot 0.688993 -17.2819
rtoes 7.87162
lfemur 0.917893 -3.35951 -22.7283
ltibia 17.1288
lfoot -10.884 -6.65035
ltoes -7.44537
241
root 28.8707 17.644 6.4012 5.3097 -84.4225 4.87688
lowerback -0.723485 -1.57231 -1.89588
upperback -0.683355 -2.13458 4.17364
thorax -0.0680392 -1.07964 5.35756
lowerneck -9.37258 -6.12668 -7.68033
upperneck 5.72704 -7.72339 6.13017
head 3.76641 -3.71321 2.61515
rclavicle 6.55989e-015 -1.51076e-014
rhumerus -37.164 -9.70719 -71.1666
rradius 26.8248
rwrist 14.2569
rhand -12.5055 -23.1424
rfingers 7.12502
rthumb 13.5698 -52.6801
lclavicle 6.55989e-015 -1.51076e-014
lhumerus -33.2251 10.3835 84.4811
lradius 35.4298
lwrist -25.1616
lhand -12.8359 17.915
lfingers 7.12502
lthumb 13.2514 47.4737
rfemur -34.1564 0.16908 16.9188
rtibia 16.2407
rfoot 0.927117 -17.1283
rtoes 8.55132
lfemur 0.88316 -3.42458 -22.5134
ltibia 17.7776
lfoot -10.4376 -6.82117
ltoes -8.19843
242
root 28.7371 17.6515 6.39304 6.43779 -84.4517 3.76771
lowerback -0.714186 -1.58293 -1.72665
upperback -0.713622 -2.15103 4.22881
thorax -0.106635 -1.08809 5.31956
lowerneck -9.44687 -6.14861 -7.71987
upperneck 5.64207 -7.73417 6.07916
head 3.7527 -3.72045 2.60397
rclavicle -8.74653e-015 -4.37326e-014
rhumerus -37.3184 -10.3192 -70.5804
rradius 26.4638
rwrist 14.4234
rhand -12.3835 -23.0545
rfingers 7.12502
rthumb 13.6874 -52.5844
lclavicle -8.74653e-015 -4.37326e-014
lhumerus -33.4483 10.709 84.4298
lradius 34.8803
lwrist -25.6244
lhand -12.6075 17.8924
lfingers 7.12502
lthumb 13.4715 47.4368
rfemur -33.9448 0.447143 17.1224
rtibia 16.2673
rfoot 1.14886 -16.9537
rtoes 9.24513
lfemur 0.815013 -3.48088 -22.2792
ltibia 18.4763
lfoot -9.92945 -7.00658
ltoes -8.90895
243
root 28.6031 17.6597 6.38469 7.68406 -84.4878 2.53429
lowerback -0.700027 -1.59074 -1.54873
upperback -0.744861 -2.16374 4.28632
thorax -0.149627 -1.09474 5.27933
lowerneck -9.5235 -6.17301 -7.76297
upperneck 5.56129 -7.74768 6.0263
head 3.74086 -3.72916 2.59245
rclavicle -1.33186e-014 -2.38542e-014
rhumerus -37.4694 -10.9398 -69.9764
rradius 26.1534
rwrist 14.5792
rhand -12.2719 -22.9687
rfingers 7.12502
rthumb 13.795 -52.4914
lclavicle -1.33186e-014 -2.38542e-014
lhumerus -33.6749 11.0392 84.3701
lradius 34.326
lwrist -26.1018
lhand -12.3614 17.8607
lfingers 7.12502
lthumb 13.7087 47.3892
rfemur -33.7165 0.711761 17.351
rtibia 16.3288
rfoot 1.35603 -16.7587
rtoes 9.94848
lfemur 0.71169 -3.52828 -22.0273
ltibia 19.2262
lfoot -9.35933 -7.20423
ltoes -9.57645
244
root 28.4687 17.6689 6.37614 9.05984 -84.529 1.16504
lowerback -0.683241 -1.5963 -1.36328
upperback -0.775731 -2.17348 4.34695
thorax -0.194215 -1.10009 5.23825
lowerneck -9.59981 -6.19928 -7.81124
upperneck 5.48152 -7.76318 5.97383
head 3.72961 -3.73894 2.58171
rclavicle -1.63003e-014 -2.06736e-014
rhumerus -37.6141 -11.5637 -69.3577
rradius 25.8938
rwrist 14.7231
rhand -12.1693 -22.8859
rfingers 7.12502
rthumb 13.8939 -52.4018
lclavicle -1.63003e-014 -2.06736e-014
lhumerus -33.9029 11.3736 84.3032
lradius 33.7698
lwrist -26.5911
lhand -12.1037 17.8093
lfingers 7.12502
lthumb 13.957 47.3209
rfemur -33.4706 0.962397 17.6046
rtibia 16.4194
rfoot 1.54841 -16.5446
rtoes 10.6578
lfemur 0.572185 -3.56546 -21.7565
ltibia 20.0278
lfoot -8.72618 -7.41276
ltoes -10.2005
245
root 28.334 17.6788 6.36739 10.5618 -84.5748 -0.336423
lowerback -0.657928 -1.60027 -1.17162
upperback -0.810029 -2.18093 4.41094
thorax -0.247472 -1.10431 5.19757
lowerneck -9.67489 -6.22752 -7.86708
upperneck 5.40668 -7.7807 5.92203
head 3.7201 -3.74987 2.57217
rclavicle 5.36719e-015 3.97569e-014
rhumerus -37.7563 -12.1804 -68.7273
rradius 25.687
rwrist 14.8514
rhand -12.07 -22.8086
rfingers 7.12502
rthumb 13.9896 -52.3179
lclavicle 5.36719e-015 3.97569e-014
lhumerus -34.1366 11.7114 84.2281
lradius 33.2143
lwrist -27.0893
lhand -11.8343 17.7426
lfingers 7.12502
lthumb 14.2167 47.2361
rfemur -33.2067 1.19993 17.8806
rtibia 16.5344
rfoot 1.72197 -16.3143
rtoes 11.3763
lfemur 0.395947 -3.59042 -21.4678
ltibia 20.8792
lfoot -8.03163 -7.62862
ltoes -10.7813
246
root 28.1992 17.6895 6.35845 12.1848 -84.6243 -1.96503
lowerback -0.634508 -1.60142 -0.974594
upperback -0.840339 -2.18468 4.47606
thorax -0.296108 -1.10699 5.15498
lowerneck -9.75149 -6.25949 -7.92747
upperneck 5.33104 -7.80281 5.87359
head 3.71119 -3.76297 2.56397
rclavicle -3.37934e-015 1.27222e-014
rhumerus -37.8873 -12.7952 -68.0913
rradius 25.5348
rwrist 14.9629
rhand -11.9802 -22.7316
rfingers 7.12502
rthumb 14.0761 -52.2348
lclavicle -3.37934e-015 1.27222e-014
lhumerus -34.3629 12.0462 84.1469
lradius 32.6614
lwrist -27.5933
lhand -11.5541 17.6604
lfingers 7.12502
lthumb 14.4866 47.1346
rfemur -32.9249 1.42401 18.1771
rtibia 16.6696
rfoot 1.87469 -16.0695
rtoes 12.0917
lfemur 0.182115 -3.60211 -21.1624
ltibia 21.7805
lfoot -7.27972 -7.84859
ltoes -11.3211
247
root 28.0643 17.7009 6.34935 13.9196 -84.6764 -3.71127
lowerback -0.603863 -1.60035 -0.774103
upperback -0.872183 -2.18521 4.54258
thorax -0.350769 -1.10814 5.11225
lowerneck -9.82962 -6.29476 -7.99362
upperneck 5.2602 -7.8288 5.827
head 3.70454 -3.77799 2.55682
rclavicle 7.7526e-015 -3.49861e-014
rhumerus -38.0139 -13.3943 -67.4532
rradius 25.4401
rwrist 15.0492
rhand -11.8893 -22.6597
rfingers 7.12502
rthumb 14.1637 -52.1569
lclavicle 7.7526e-015 -3.49861e-014
lhumerus -34.5898 12.3777 84.0588
lradius 32.1154
lwrist -28.1
lhand -11.2594 17.5706
lfingers 7.12502
lthumb 14.7706 47.0243
rfemur -32.6243 1.63578 18.4909
rtibia 16.819
rfoot 2.00394 -15.8141
rtoes 12.7972
lfemur -0.0696845 -3.60046 -20.8425
ltibia 22.7314
lfoot -6.47908 -8.06659
ltoes -11.8234
248
root 27.9295 17.7129 6.34011 15.7693 -84.7304 -5.57809
lowerback -0.572905 -1.59755 -0.570954
upperback -0.902232 -2.18335 4.61023
thorax -0.404037 -1.10832 5.06923
lowerneck -9.90378 -6.33336 -8.0663
upperneck 5.18801 -7.85898 5.78431
head 3.69751 -3.79509 2.55166
rclavicle -1.90833e-014 -1.11319e-014
rhumerus -38.1302 -13.9725 -66.819
rradius 25.4036
rwrist 15.1061
rhand -11.8068 -22.584
rfingers 7.12502
rthumb 14.2432 -52.0756
lclavicle -1.90833e-014 -1.11319e-014
lhumerus -34.8122 12.7059 83.9639
lradius 31.5784
lwrist -28.6088
lhand -10.9518 17.4712
lfingers 7.12502
lthumb 15.0669 46.9029
rfemur -32.3052 1.83514 18.8204
rtibia 16.9781
rfoot 2.10717 -15.5491
rtoes 13.4875
lfemur -0.359253 -3.58371 -20.5083
ltibia 23.7293
lfoot -5.63223 -8.28044
ltoes -12.2749
249
root 27.7949 17.7254 6.33072 17.7412 -84.7852 -7.57259
lowerback -0.537921 -1.59282 -0.365268
upperback -0.932601 -2.17867 4.67869
thorax -0.460203 -1.10724 5.02585
lowerneck -9.97292 -6.37578 -8.14664
upperneck 5.11537 -7.89411 5.74724
head 3.69041 -3.8146 2.54916
rclavicle 6.95746e-015 1.27222e-014
rhumerus -38.2387 -14.5216 -66.1932
rradius 25.4276
rwrist 15.1258
rhand -11.7265 -22.5054
rfingers 7.12502
rthumb 14.3205 -51.9916
lclavicle 6.95746e-015 1.27222e-014
lhumerus -35.0322 13.0277 83.8626
lradius 31.0539
lwrist -29.1157
lhand -10.6374 17.356
lfingers 7.12502
lthumb 15.3698 46.7648
rfemur -31.9674 2.02527 19.1637
rtibia 17.1413
rfoot 2.1812 -15.2779
rtoes 14.1577
lfemur -0.68718 -3.55196 -20.1597
ltibia 24.773
lfoot -4.74665 -8.48491
ltoes -12.6739
250
root 27.6605 17.7384 6.32122 19.824 -84.8393 -9.68395
lowerback -0.500609 -1.58659 -0.158804
upperback -0.960936 -2.17181 4.74765
thorax -0.515768 -1.10527 4.98266
lowerneck -10.0412 -6.42325 -8.23483
upperneck 5.04215 -7.93551 5.7166
head 3.68399 -3.83708 2.54936
rclavicle -4.17448e-015 6.36111e-014
rhumerus -38.3336 -15.037 -65.5814
rradius 25.5141
rwrist 15.1019
rhand -11.6392 -22.4289
rfingers 7.12502
rthumb 14.4047 -51.9091
lclavicle -4.17448e-015 6.36111e-014
lhumerus -35.2458 13.3413 83.7565
lradius 30.5458
lwrist -29.6174
lhand -10.3168 17.2361
lfingers 7.12502
lthumb 15.6785 46.6209
rfemur -31.6101 2.2049 19.5185
rtibia 17.3039
rfoot 2.22657 -14.9997
rtoes 14.7997
lfemur -1.05225 -3.504 -19.7987
ltibia 25.8596
lfoot -3.82979 -8.67707
ltoes -13.0259
251
root 27.5266 17.7518 6.31161 22.0182 -84.8921 -11.9118
lowerback -0.461134 -1.57896 0.05184
upperback -0.98841 -2.16278 4.81338
thorax -0.572093 -1.10237 4.93382
lowerneck -10.1013 -6.47528 -8.32695
upperneck 4.96544 -7.98369 5.6942
head 3.67618 -3.86271 2.55241
rclavicle -6.36111e-015 -3.33958e-014
rhumerus -38.4184 -15.5182 -64.989
rradius 25.6614
rwrist 15.036
rhand -11.5573 -22.3338
rfingers 7.12502
rthumb 14.4836 -51.8083
lclavicle -6.36111e-015 -3.33958e-014
lhumerus -35.454 13.641 83.641
lradius 30.0559
lwrist -30.1073
lhand -9.99606 17.0985
lfingers 7.12502
lthumb 15.9874 46.4588
rfemur -31.2318 2.3792 19.8815
rtibia 17.4576
rfoot 2.24207 -14.721
rtoes 15.4191
lfemur -1.45388 -3.44024 -19.4258
ltibia 26.984
lfoot -2.88944 -8.85429
ltoes -13.3271
